<svg width="56" height="56" viewBox="0 0 56 56" fill="none" xmlns="http://www.w3.org/2000/svg">
<rect x="4" y="4" width="48" height="48" rx="24" fill="#9FE8AF"/>
<rect x="4" y="4" width="48" height="48" rx="24" stroke="#CAF2D2" stroke-width="8"/>
<path d="M31.646 34.0149C32.0748 35.6153 31.1251 37.2603 29.5247 37.6891C27.9243 38.118 26.2792 37.1682 25.8504 35.5678M18.0569 27.6134C17.6674 26.2152 18.0724 24.7036 19.1088 23.6875M28.1464 21.741C28.4506 21.1937 28.5508 20.5322 28.3759 19.8796C28.0186 18.5459 26.6477 17.7545 25.3141 18.1118C23.9804 18.4692 23.1889 19.84 23.5463 21.1737C23.7212 21.8263 24.1387 22.349 24.6758 22.6709M36.3191 22.7201C35.9573 21.3145 34.8507 20.2079 33.4451 19.8461M33.4907 25.4454C33.1337 24.1133 32.1808 22.9993 30.8415 22.3486C29.5023 21.6978 27.8864 21.5636 26.3493 21.9755C24.8122 22.3874 23.4799 23.3115 22.6454 24.5447C21.8109 25.7779 21.5426 27.2191 21.8996 28.5512C22.4902 30.7553 22.3755 32.5137 22.0025 33.8498C21.5775 35.3727 21.3649 36.1341 21.4223 36.287C21.488 36.4619 21.5356 36.5099 21.7098 36.5774C21.8621 36.6364 22.5019 36.465 23.7814 36.1222L35.6465 32.9429C36.926 32.6001 37.5658 32.4286 37.6682 32.3014C37.7853 32.1558 37.8024 32.0905 37.7719 31.9061C37.7451 31.745 37.1804 31.1919 36.0508 30.0856C35.0598 29.1149 34.0813 27.6495 33.4907 25.4454Z" stroke="#1D7A32" stroke-width="2" stroke-linecap="round" stroke-linejoin="round"/>
</svg>
