<svg width="56" height="56" viewBox="0 0 56 56" fill="none" xmlns="http://www.w3.org/2000/svg">
<rect x="4" y="4" width="48" height="48" rx="24" fill="#F4EBFF"/>
<rect x="4" y="4" width="48" height="48" rx="24" stroke="#F9F5FF" stroke-width="8"/>
<path d="M28 33.5H28.01M24.2 38H31.8C32.9201 38 33.4802 38 33.908 37.782C34.2843 37.5903 34.5903 37.2843 34.782 36.908C35 36.4802 35 35.9201 35 34.8V21.2C35 20.0799 35 19.5198 34.782 19.092C34.5903 18.7157 34.2843 18.4097 33.908 18.218C33.4802 18 32.9201 18 31.8 18H24.2C23.0799 18 22.5198 18 22.092 18.218C21.7157 18.4097 21.4097 18.7157 21.218 19.092C21 19.5198 21 20.0799 21 21.2V34.8C21 35.9201 21 36.4802 21.218 36.908C21.4097 37.2843 21.7157 37.5903 22.092 37.782C22.5198 38 23.0799 38 24.2 38ZM28.5 33.5C28.5 33.7761 28.2761 34 28 34C27.7239 34 27.5 33.7761 27.5 33.5C27.5 33.2239 27.7239 33 28 33C28.2761 33 28.5 33.2239 28.5 33.5Z" stroke="#7F56D9" stroke-width="2" stroke-linecap="round" stroke-linejoin="round"/>
</svg>
