<svg width="32" height="32" viewBox="0 0 32 32" fill="none" xmlns="http://www.w3.org/2000/svg">
<path d="M8.87844 8.24852H12.7909L16.0026 5.03679L19.2178 8.24852H23.7601V12.7909L26.971 16.0017L23.7601 19.2135V23.7549H19.2178L16.0026 26.9684L12.7909 23.7567H8.24852V19.2135L5.03764 16.0017L8.24852 12.7909V8.24852H8.87844ZM5.31636 4.68645H11.3153L16.0026 0L20.689 4.68645H27.317V11.3153L32.0043 16.0017L27.317 20.689V27.3136H20.689L16.0026 32L11.3153 27.3136H4.6873V20.689L0 16.0017L4.6873 11.3153V4.68645H5.31636ZM11.5759 5.94629H5.94628V11.8365L1.78104 16.0017L5.94628 20.167V26.058H11.8365L16.0026 30.2233L20.167 26.058H26.0572V20.167L30.2224 16.0017L26.0572 11.8365V5.94629H20.167L16.0017 1.78104L11.8356 5.94629H11.5759ZM12.4388 11.814H14.2647L16.0009 10.0779L17.7362 11.814H20.192V14.269L21.9282 16.0052L20.1937 17.7353V20.1911H17.7379L16.0026 21.929L14.2664 20.1937H11.8106V17.7353L10.071 16.0017L11.8071 14.2656V11.8106L12.4388 11.814ZM14.5253 13.073H13.0696V14.7911L11.8555 16.0052L13.0696 17.2176V18.9347H14.7876L16.0026 20.1514L17.2167 18.9365H18.9347V17.2176L20.1488 16.0026L18.9347 14.7885V13.0696H17.2167L16.0026 11.8555L14.7876 13.0696L14.5253 13.073ZM13.0497 9.51095H9.50836V13.3155L6.81782 16.0017L9.50836 18.6923V22.496H13.312L16.0026 25.1856L18.6923 22.496H22.4968V18.6923L25.1874 16.0017L22.4968 13.312V9.5075H18.6923L16.0026 6.81782L13.312 9.5075L13.0497 9.51095Z" fill="url(#paint0_linear_20330_1814)"/>
<path fill-rule="evenodd" clip-rule="evenodd" d="M11.5759 5.94629H5.94628V11.8365L1.78104 16.0017L5.94628 20.167V26.058H11.8365L16.0026 30.2233L20.167 26.058H26.0572V20.167L30.2224 16.0017L26.0572 11.8365V5.94629H20.167L16.0017 1.78104L11.8356 5.94629H11.5759ZM12.7909 8.24852H8.87844H8.24852V12.7909L5.03764 16.0017L8.24852 19.2135V23.7567H12.7909L16.0026 26.9684L19.2178 23.7549H23.7601V19.2135L26.971 16.0017L23.7601 12.7909V8.24852H19.2178L16.0026 5.03679L12.7909 8.24852Z" fill="white"/>
<path fill-rule="evenodd" clip-rule="evenodd" d="M13.0497 9.51095H9.50836V13.3155L6.81782 16.0017L9.50836 18.6923V22.496H13.312L16.0026 25.1856L18.6923 22.496H22.4968V18.6923L25.1874 16.0017L22.4968 13.312V9.5075H18.6923L16.0026 6.81782L13.312 9.5075L13.0497 9.51095ZM14.2647 11.814H12.4388L11.8071 11.8106V14.2656L10.071 16.0017L11.8106 17.7353V20.1937H14.2664L16.0026 21.929L17.7379 20.1911H20.1937V17.7353L21.9282 16.0052L20.192 14.269V11.814H17.7362L16.0009 10.0779L14.2647 11.814Z" fill="white"/>
<path d="M14.5253 13.073H13.0696V14.7911L11.8555 16.0052L13.0696 17.2176V18.9347H14.7876L16.0026 20.1514L17.2167 18.9365H18.9347V17.2176L20.1488 16.0026L18.9347 14.7885V13.0696H17.2167L16.0026 11.8555L14.7876 13.0696L14.5253 13.073Z" fill="white"/>
<defs>
<linearGradient id="paint0_linear_20330_1814" x1="-0.000498403" y1="31.9998" x2="31.9996" y2="-0.00469995" gradientUnits="userSpaceOnUse">
<stop stop-color="#27A544"/>
<stop offset="1" stop-color="#84E199"/>
</linearGradient>
</defs>
</svg>
