<svg width="81" height="80" viewBox="0 0 81 80" fill="none" xmlns="http://www.w3.org/2000/svg">
<path d="M22.1961 20.6213H31.9771L40.0065 12.592L48.0444 20.6213H59.4003V31.9771L67.4275 40.0043L59.4003 48.0337V59.3873H48.0444L40.0065 67.421L31.9771 59.3917H20.6213V48.0337L12.5941 40.0043L20.6213 31.9771V20.6213H22.1961ZM13.2909 11.7161H28.2882L40.0065 0L51.7226 11.7161H68.2925V28.2882L80.0108 40.0043L68.2925 51.7226V68.2839H51.7226L40.0065 80L28.2882 68.2839H11.7183V51.7226L0 40.0043L11.7183 28.2882V11.7161H13.2909ZM28.9397 14.8657H14.8657V29.5912L4.45259 40.0043L14.8657 50.4174V65.1451H29.5912L40.0065 75.5582L50.4174 65.1451H65.1429V50.4174L75.556 40.0043L65.1429 29.5912V14.8657H50.4174L40.0043 4.4526L29.589 14.8657H28.9397ZM31.097 29.5351H35.6617L40.0022 25.1947L44.3404 29.5351H50.48V35.6725L54.8204 40.013L50.4843 44.3383V50.4778H44.3447L40.0065 54.8226L35.666 50.4843H29.5265V44.3383L25.1774 40.0043L29.5178 35.6639V29.5265L31.097 29.5351ZM36.3132 32.6826H32.6739V36.9777L29.6387 40.013L32.6739 43.0439V47.3369H36.969L40.0065 50.3786L43.0417 47.3412H47.3369V43.0439L50.3721 40.0065L47.3369 36.9712V32.6739H43.0417L40.0065 29.6387L36.969 32.6739L36.3132 32.6826ZM32.6243 23.7774H23.7709V33.2888L17.0445 40.0043L23.7709 46.7307V56.2399H33.2801L40.0065 62.9641L46.7307 56.2399H56.242V46.7307L62.9684 40.0043L56.242 33.2801V23.7688H46.7307L40.0065 17.0445L33.2801 23.7688L32.6243 23.7774Z" fill="url(#paint0_linear_20312_1333)"/>
<path fill-rule="evenodd" clip-rule="evenodd" d="M28.9397 14.8657H14.8657V29.5912L4.45259 40.0043L14.8657 50.4174V65.1451H29.5912L40.0065 75.5582L50.4174 65.1451H65.1429V50.4174L75.556 40.0043L65.1429 29.5912V14.8657H50.4174L40.0043 4.4526L29.589 14.8657H28.9397ZM31.9771 20.6213H22.1961H20.6213V31.9771L12.5941 40.0043L20.6213 48.0337V59.3917H31.9771L40.0065 67.421L48.0444 59.3873H59.4003V48.0337L67.4275 40.0043L59.4003 31.9771V20.6213H48.0444L40.0065 12.592L31.9771 20.6213Z" fill="white"/>
<path fill-rule="evenodd" clip-rule="evenodd" d="M32.6243 23.7774H23.7709V33.2888L17.0445 40.0043L23.7709 46.7307V56.2399H33.2801L40.0065 62.9641L46.7307 56.2399H56.242V46.7307L62.9684 40.0043L56.242 33.2801V23.7688H46.7307L40.0065 17.0445L33.2801 23.7688L32.6243 23.7774ZM35.6617 29.5351H31.097L29.5178 29.5265V35.6639L25.1774 40.0043L29.5265 44.3383V50.4843H35.666L40.0065 54.8226L44.3447 50.4778H50.4843V44.3383L54.8204 40.013L50.48 35.6725V29.5351H44.3404L40.0022 25.1947L35.6617 29.5351Z" fill="white"/>
<path d="M36.3132 32.6826H32.6739V36.9777L29.6387 40.013L32.6739 43.0439V47.3369H36.969L40.0065 50.3786L43.0417 47.3412H47.3369V43.0439L50.3721 40.0065L47.3369 36.9712V32.6739H43.0417L40.0065 29.6387L36.969 32.6739L36.3132 32.6826Z" fill="white"/>
<defs>
<linearGradient id="paint0_linear_20312_1333" x1="-0.00124601" y1="79.9995" x2="79.999" y2="-0.0117461" gradientUnits="userSpaceOnUse">
<stop stop-color="#27A544"/>
<stop offset="1" stop-color="#84E199"/>
</linearGradient>
</defs>
</svg>
