<svg width="20" height="20" viewBox="0 0 20 20" fill="none" xmlns="http://www.w3.org/2000/svg">
<g clip-path="url(#clip0_20311_1050)">
<path d="M0.472371 6.95658C0.166043 7.91626 0.00014405 8.93865 0.000183112 9.99993C0.00014405 11.0613 0.166082 12.0837 0.47241 13.0434L10.0002 13.4783L19.528 13.0435C19.8343 12.0838 20.0002 11.0613 20.0002 10C20.0002 8.93868 19.8343 7.91626 19.528 6.95654L10.0002 6.52177L0.472371 6.95658Z" fill="#F0F0F0"/>
<path d="M19.5277 6.95654L9.99988 6.52177L0.472063 6.95654C0.381282 7.24107 0.303118 7.53118 0.23761 7.82611H19.762C19.6966 7.53114 19.6184 7.24099 19.5277 6.95654Z" fill="#D80027"/>
<path d="M0.237549 12.1742C0.302979 12.4691 0.381143 12.7592 0.471924 13.0437L0.472861 13.0438L9.99966 13.4785L19.5274 13.0438C19.6182 12.7592 19.6964 12.4691 19.7618 12.1742H0.237549Z" fill="#D80027"/>
<path d="M10.0003 20.0006C14.4619 20.0006 18.2404 17.0786 19.5281 13.0441H0.472595C1.76029 17.0786 5.53888 20.0006 10.0003 20.0006Z" fill="#6DA544"/>
<path d="M10.0001 -0.00068283C5.53858 -0.000643768 1.76006 2.92135 0.47229 6.95584L19.5278 6.95588C18.2402 2.92131 14.4616 -0.000721893 10.0001 -0.00068283Z" fill="#338AF3"/>
<path d="M4.56956 4.1303C4.56956 3.1937 5.2278 2.41127 6.10683 2.21932C5.97175 2.18979 5.83155 2.17381 5.68757 2.17381C4.60702 2.17381 3.73105 3.04975 3.73105 4.13034C3.73105 5.21092 4.60695 6.08686 5.68757 6.08686C5.83155 6.08686 5.97171 6.07085 6.10683 6.04135C5.22784 5.84932 4.56956 5.0669 4.56956 4.1303Z" fill="#F0F0F0"/>
<path d="M7.26282 5.01871L7.39524 5.42633H7.82384L7.47712 5.67828L7.60954 6.0859L7.26282 5.83398L6.91602 6.0859L7.04848 5.67828L6.70172 5.42633H7.13032L7.26282 5.01871Z" fill="#F0F0F0"/>
<path d="M8.63133 5.01871L8.76379 5.42633H9.19238L8.84562 5.67828L8.97809 6.0859L8.63133 5.83398L8.28457 6.0859L8.41703 5.67828L8.07031 5.42633H8.49887L8.63133 5.01871Z" fill="#F0F0F0"/>
<path d="M9.99896 5.01871L10.1314 5.42633H10.56L10.2133 5.67828L10.3457 6.0859L9.99896 5.83398L9.65216 6.0859L9.78466 5.67828L9.43787 5.42633H9.8665L9.99896 5.01871Z" fill="#F0F0F0"/>
<path d="M11.3674 5.01871L11.4999 5.42633H11.9284L11.5817 5.67828L11.7142 6.0859L11.3674 5.83398L11.0206 6.0859L11.1531 5.67828L10.8063 5.42633H11.2349L11.3674 5.01871Z" fill="#F0F0F0"/>
<path d="M12.7352 5.01871L12.8677 5.42633H13.2963L12.9495 5.67828L13.082 6.0859L12.7352 5.83398L12.3885 6.0859L12.5209 5.67828L12.1742 5.42633H12.6027L12.7352 5.01871Z" fill="#F0F0F0"/>
<path d="M8.63133 3.59597L8.76379 4.00355H9.19238L8.84562 4.25554L8.97809 4.66312L8.63133 4.41121L8.28457 4.66312L8.41703 4.25554L8.07031 4.00355H8.49887L8.63133 3.59597Z" fill="#F0F0F0"/>
<path d="M9.99896 3.59597L10.1314 4.00355H10.56L10.2133 4.25554L10.3457 4.66312L9.99896 4.41121L9.65216 4.66312L9.78466 4.25554L9.43787 4.00355H9.8665L9.99896 3.59597Z" fill="#F0F0F0"/>
<path d="M11.3674 3.59597L11.4999 4.00355H11.9284L11.5817 4.25554L11.7142 4.66312L11.3674 4.41121L11.0206 4.66312L11.1531 4.25554L10.8063 4.00355H11.2349L11.3674 3.59597Z" fill="#F0F0F0"/>
<path d="M12.7352 3.59597L12.8677 4.00355H13.2963L12.9495 4.25554L13.082 4.66312L12.7352 4.41121L12.3885 4.66312L12.5209 4.25554L12.1742 4.00355H12.6027L12.7352 3.59597Z" fill="#F0F0F0"/>
<path d="M9.99896 2.1734L10.1314 2.58105H10.56L10.2133 2.83297L10.3457 3.24062L9.99896 2.98871L9.65216 3.24062L9.78466 2.83297L9.43787 2.58105H9.8665L9.99896 2.1734Z" fill="#F0F0F0"/>
<path d="M11.3674 2.1734L11.4999 2.58105H11.9284L11.5817 2.83297L11.7142 3.24062L11.3674 2.98871L11.0206 3.24062L11.1531 2.83297L10.8063 2.58105H11.2349L11.3674 2.1734Z" fill="#F0F0F0"/>
<path d="M12.7352 2.1734L12.8677 2.58105H13.2963L12.9495 2.83297L13.082 3.24062L12.7352 2.98871L12.3885 3.24062L12.5209 2.83297L12.1742 2.58105H12.6027L12.7352 2.1734Z" fill="#F0F0F0"/>
</g>
<defs>
<clipPath id="clip0_20311_1050">
<rect width="20" height="20" fill="white"/>
</clipPath>
</defs>
</svg>
